<svg width="70" height="70" viewBox="0 0 70 70" fill="none" xmlns="http://www.w3.org/2000/svg">
<g clip-path="url(#clip0_18_18)">
<g opacity="0.783251">
<g opacity="0.783251" filter="url(#filter0_f_18_18)">
<path d="M29.6196 6.53506L7.2249 29.4733C-1.25466 37.9529 12.7149 37.2463 17.77 40.4533C20.1073 41.9753 10.2688 43.9321 12.28 45.9432C14.2368 47.9544 24.0753 49.8025 26.0321 51.7594C27.9889 53.7705 22.0641 55.8904 24.0209 57.9016C25.9234 59.9128 30.4893 58.0103 31.3047 62.5762C31.9026 65.9463 39.6755 64.2613 43.1543 61.3804C45.3285 59.5323 39.4037 59.5323 41.3605 57.5211C46.2526 52.5747 50.6011 55.2925 52.3948 50.7266C53.3732 48.2806 45.0024 46.5412 47.231 44.9648C52.5579 41.2143 72.1261 39.3118 63.103 30.2887L39.8929 6.53506C37.0121 3.81725 32.2831 3.81725 29.6196 6.53506ZM55.3301 50.7266C55.3301 51.8681 64.1901 52.5203 63.7009 50.4548C62.9943 46.976 56.3085 47.2478 55.3301 50.7266ZM17.5526 56.7601C19.5637 58.4995 22.6077 56.3796 23.5861 53.9336C21.6293 51.3789 14.3999 54.0967 17.5526 56.7601ZM54.2429 53.1183C51.7426 55.4012 54.6778 57.7929 57.1238 56.2166C57.7761 55.7817 57.0695 53.6618 54.2429 53.1183Z" fill="black"/>
</g>
<g opacity="0.576355" filter="url(#filter1_f_18_18)">
<path d="M29.6196 7.06588L7.2249 30.0042C-1.25466 38.4837 12.7149 37.7771 17.77 40.9841C20.1073 42.5061 10.2688 44.4629 12.28 46.4741C14.2368 48.4852 24.0753 50.3334 26.0321 52.2902C27.9889 54.3014 22.0641 56.4212 24.0209 58.4324C25.9234 60.4436 30.4893 58.5411 31.3047 63.1071C31.9026 66.4771 39.6755 64.7921 43.1543 61.9112C45.3285 60.0631 39.4037 60.0631 41.3605 58.0519C46.2526 53.1055 50.6011 55.8233 52.3948 51.2574C53.3732 48.8114 45.0024 47.072 47.231 45.4957C52.5579 41.7451 72.1261 39.8426 63.103 30.8195L39.8929 7.06588C37.0121 4.34808 32.2831 4.34808 29.6196 7.06588ZM55.3301 51.2574C55.3301 52.3989 64.1901 53.0512 63.7009 50.9856C62.9943 47.5068 56.3085 47.7786 55.3301 51.2574ZM17.5526 57.2909C19.5637 59.0303 22.6077 56.9105 23.5861 54.4644C21.6293 51.9097 14.3999 54.6275 17.5526 57.2909ZM54.2429 53.6491C51.7426 55.932 54.6778 58.3237 57.1238 56.7474C57.7761 56.3125 57.0695 54.1926 54.2429 53.6491Z" fill="black"/>
</g>
</g>
<path d="M29.6196 6.00424L7.2249 28.9425C-1.25466 37.4221 12.7149 36.7154 17.77 39.9225C20.1073 41.4444 10.2688 43.4012 12.28 45.4124C14.2368 47.4236 24.0753 49.2717 26.0321 51.2285C27.9889 53.2397 22.0641 55.3596 24.0209 57.3708C25.9234 59.3819 30.4893 57.4795 31.3047 62.0454C31.9026 65.4155 39.6755 63.7304 43.1543 60.8496C45.3285 59.0015 39.4037 59.0015 41.3605 56.9903C46.2526 52.0439 50.6011 54.7617 52.3948 50.1958C53.3732 47.7497 45.0024 46.0103 47.231 44.434C52.5579 40.6834 72.1261 38.781 63.103 29.7579L39.8929 6.00424C37.0121 3.28643 32.2831 3.28643 29.6196 6.00424ZM55.3301 50.1958C55.3301 51.3372 64.1901 51.9895 63.7009 49.924C62.9943 46.4452 56.3085 46.717 55.3301 50.1958ZM17.5526 56.2293C19.5637 57.9687 22.6077 55.8488 23.5861 53.4028C21.6293 50.848 14.3999 53.5658 17.5526 56.2293ZM54.2429 52.5874C51.7426 54.8704 54.6778 57.2621 57.1238 55.6857C57.7761 55.2509 57.0695 53.131 54.2429 52.5874Z" fill="black"/>
<path opacity="0.505263" d="M9.21718 30.2141C3.12824 36.2482 13.825 34.5477 22.0533 37.7841L39.0585 7.88797C36.4803 5.25491 33.189 5.47434 30.8302 7.88797L9.21718 30.2141Z" fill="url(#paint0_linear_18_18)"/>
<path d="M38.534 7.63492L47.3941 16.658C48.2094 17.4734 48.2094 19.1584 47.7202 19.6476L43.3174 16.0601L42.4477 21.3327L38.8058 19.3758L32.881 23.1264L30.9242 15.2448L27.7715 22.0936L19.8899 22.0393C18.3679 22.0393 18.5853 20.463 20.1617 18.8866C23.26 15.4622 29.2935 9.6461 31.196 7.63492C33.1528 5.62374 36.5772 5.6781 38.534 7.63492Z" fill="url(#paint1_linear_18_18)"/>
<path opacity="0.216749" fill-rule="evenodd" clip-rule="evenodd" d="M26.3735 50.2606C26.3735 50.2606 27.3352 51.7291 27.2372 52.4198C27.0448 53.7754 24.1252 54.4519 24.7721 55.6586C25.4112 56.8509 27.7148 56.1751 29.6483 57.422C31.5736 58.6636 31.056 61.1939 32.4553 61.8304C35.1844 63.0718 42.3517 59.6892 41.9919 59.7612C41.632 59.8331 34.9182 61.2281 33.4068 60.0046C31.6834 58.6095 31.1893 57.6351 29.9182 56.8102C28.7271 56.0372 27.0538 55.7219 26.6643 55.089C26.2748 54.4561 27.4443 53.6395 27.5251 52.4198C27.5736 51.6873 26.3735 50.2606 26.3735 50.2606Z" fill="url(#paint2_radial_18_18)"/>
<g opacity="0.275862" filter="url(#filter2_f_18_18)">
<path fill-rule="evenodd" clip-rule="evenodd" d="M26.3735 50.2606C26.3735 50.2606 27.3352 51.7291 27.2372 52.4198C27.0448 53.7754 24.1252 54.4519 24.7721 55.6586C25.4112 56.8509 27.7148 56.1751 29.6483 57.422C31.5736 58.6636 31.056 61.1939 32.4553 61.8304C35.1844 63.0718 42.3517 59.6892 41.9919 59.7612C30.0904 59.8065 32.3114 56.7398 27.723 54.723C27.06 54.4315 27.4443 53.6395 27.5251 52.4198C27.5736 51.6873 26.3735 50.2606 26.3735 50.2606Z" fill="url(#paint3_radial_18_18)"/>
</g>
<path opacity="0.453202" fill-rule="evenodd" clip-rule="evenodd" d="M46.5982 43.9989C57.2802 40.0678 60.7119 39.5277 64.2318 36.0098C60.155 39.4512 51.536 41.2972 44.5109 44.3588L46.5982 43.9989Z" fill="url(#paint4_radial_18_18)"/>
<g opacity="0.512315" filter="url(#filter3_f_18_18)">
<path fill-rule="evenodd" clip-rule="evenodd" d="M46.5982 43.495C64.1897 37.2608 61.2157 37.2965 64.2318 35.5059C58.6387 37.6469 48.1861 37.8753 44.5109 43.8549L46.5982 43.495Z" fill="url(#paint5_radial_18_18)"/>
</g>
<path opacity="0.285714" d="M61.9646 48.4792C61.9646 48.6654 61.7239 48.8439 61.2953 48.9755C60.8668 49.1071 60.2855 49.181 59.6795 49.181C59.0734 49.181 58.4922 49.1071 58.0636 48.9755C57.635 48.8439 57.3943 48.6654 57.3943 48.4792C57.3943 48.2931 57.635 48.1146 58.0636 47.983C58.4922 47.8514 59.0734 47.7775 59.6795 47.7775C60.2855 47.7775 60.8668 47.8514 61.2953 47.983C61.7239 48.1146 61.9646 48.2931 61.9646 48.4792Z" fill="url(#paint6_linear_18_18)"/>
<g opacity="0.620689" filter="url(#filter4_f_18_18)">
<path d="M62.7564 49.289C62.7564 49.6898 62.4322 50.0743 61.8552 50.3577C61.2782 50.6412 60.4955 50.8004 59.6795 50.8004C58.8635 50.8004 58.0808 50.6412 57.5038 50.3577C56.9268 50.0743 56.6026 49.6898 56.6026 49.289C56.6026 48.8881 56.9268 48.5036 57.5038 48.2202C58.0808 47.9367 58.8635 47.7775 59.6795 47.7775C60.4955 47.7775 61.2782 47.9367 61.8552 48.2202C62.4322 48.5036 62.7564 48.8881 62.7564 49.289Z" fill="url(#paint7_linear_18_18)"/>
</g>
<g filter="url(#filter5_f_18_18)">
<path fill-rule="evenodd" clip-rule="evenodd" d="M55.487 50.129C56.5722 51.1321 62.6141 51.6468 63.6021 49.8411C61.6626 51.2184 57.3499 50.7343 55.487 50.129Z" fill="url(#paint8_radial_18_18)"/>
</g>
<path opacity="0.285714" d="M55.5084 53.477C55.5612 53.581 55.5948 53.6934 55.6073 53.8079C55.6198 53.9224 55.6108 54.0368 55.581 54.1444C55.5512 54.252 55.5011 54.3507 55.4336 54.435C55.3661 54.5193 55.2824 54.5875 55.1875 54.6356C55.0925 54.6838 54.9881 54.711 54.8802 54.7156C54.7723 54.7203 54.663 54.7023 54.5586 54.6628C54.4542 54.6232 54.3567 54.5628 54.2717 54.4851C54.1867 54.4074 54.1159 54.3138 54.0632 54.2098C54.0104 54.1058 53.9768 53.9934 53.9643 53.8789C53.9519 53.7644 53.9608 53.6501 53.9906 53.5425C54.0204 53.4349 54.0705 53.3361 54.138 53.2518C54.2056 53.1675 54.2892 53.0993 54.3841 53.0512C54.4791 53.0031 54.5835 52.9759 54.6914 52.9712C54.7993 52.9666 54.9086 52.9845 55.013 53.0241C55.1174 53.0636 55.2149 53.124 55.2999 53.2017C55.3849 53.2794 55.4558 53.373 55.5084 53.477Z" fill="url(#paint9_linear_18_18)"/>
<g opacity="0.620689" filter="url(#filter6_f_18_18)">
<path d="M55.9368 53.671C56.0157 53.8264 56.0666 53.9942 56.0865 54.1647C56.1064 54.3353 56.0949 54.5052 56.0527 54.6649C56.0105 54.8245 55.9385 54.9707 55.8406 55.0952C55.7428 55.2196 55.6211 55.3198 55.4826 55.3901C55.344 55.4603 55.1913 55.4993 55.0331 55.5046C54.8749 55.51 54.7143 55.4817 54.5606 55.4214C54.4069 55.3611 54.263 55.2699 54.1372 55.1531C54.0114 55.0362 53.9061 54.896 53.8274 54.7405C53.7484 54.585 53.6976 54.4173 53.6777 54.2467C53.6578 54.0762 53.6693 53.9062 53.7114 53.7466C53.7536 53.5869 53.8257 53.4407 53.9235 53.3163C54.0213 53.1918 54.143 53.0916 54.2816 53.0214C54.4202 52.9511 54.5729 52.9122 54.7311 52.9068C54.8893 52.9015 55.0498 52.9297 55.2035 52.9901C55.3572 53.0504 55.5011 53.1416 55.6269 53.2584C55.7528 53.3752 55.858 53.5154 55.9368 53.671Z" fill="url(#paint10_linear_18_18)"/>
</g>
<g filter="url(#filter7_f_18_18)">
<path fill-rule="evenodd" clip-rule="evenodd" d="M54.0051 55.5048C54.8772 56.1873 58.1597 56.2748 56.9144 54.2911C57.2391 55.8447 54.9972 55.6805 54.0051 55.5048Z" fill="url(#paint11_radial_18_18)"/>
</g>
<path fill-rule="evenodd" clip-rule="evenodd" d="M13.4901 45.2224C13.4901 45.0437 24.6738 48.6307 26.5894 50.5485C25.0143 49.0115 17.0428 45.4769 15.8293 45.4383C14.6157 45.3998 13.6341 45.2944 13.4901 45.2224Z" fill="url(#paint12_radial_18_18)"/>
<path opacity="0.285714" d="M21.8916 52.9059C21.9351 53.0354 21.7652 53.2061 21.4193 53.3804C21.0733 53.5547 20.5797 53.7183 20.047 53.8353C19.5142 53.9523 18.986 54.013 18.5785 54.0041C18.1711 53.9952 17.9177 53.9175 17.8742 53.788C17.8307 53.6584 18.0005 53.4878 18.3465 53.3135C18.6924 53.1392 19.186 52.9755 19.7188 52.8586C20.2515 52.7416 20.7797 52.6809 21.1872 52.6897C21.5947 52.6986 21.8481 52.7764 21.8916 52.9059Z" fill="url(#paint13_linear_18_18)"/>
<g opacity="0.620689" filter="url(#filter8_f_18_18)">
<path d="M22.7769 53.3166C22.8706 53.5956 22.6755 53.9257 22.2346 54.2343C21.7937 54.5429 21.143 54.8048 20.4257 54.9623C19.7083 55.1198 18.9832 55.16 18.4097 55.0741C17.8362 54.9882 17.4613 54.7832 17.3676 54.5043C17.2739 54.2253 17.4689 53.8952 17.9098 53.5865C18.3508 53.2779 19.0015 53.0161 19.7188 52.8586C20.4361 52.7011 21.1613 52.6609 21.7348 52.7468C22.3083 52.8327 22.6831 53.0376 22.7769 53.3166Z" fill="url(#paint14_linear_18_18)"/>
</g>
<g opacity="0.615764" filter="url(#filter9_f_18_18)">
<path fill-rule="evenodd" clip-rule="evenodd" d="M17.0708 54.723C17.0708 54.723 17.6764 56.3498 19.338 56.4324C21.019 56.5159 22.9376 54.4151 23.0986 53.6614C22.8107 54.3091 21.2013 56.262 19.1221 56.2345C17.9417 56.2188 17.0708 54.723 17.0708 54.723Z" fill="url(#paint15_radial_18_18)"/>
</g>
<g filter="url(#filter10_f_18_18)">
<path d="M34.6781 4.76422C32.9941 4.76422 31.3436 5.37412 30.1768 6.56477L7.78884 29.4963C5.742 31.5431 5.25028 32.883 5.37679 33.6409C5.44004 34.0199 5.62607 34.3492 6.02227 34.6941C6.41847 35.0389 7.0178 35.377 7.73788 35.6793C9.17806 36.2838 11.1177 36.7708 13.0206 37.293C14.9235 37.8151 16.7874 38.3663 18.2014 39.2634C18.417 39.4038 18.6195 39.5767 18.762 39.8239C18.9045 40.0711 18.9545 40.398 18.8979 40.6732C18.7846 41.2238 18.4456 41.5141 18.0995 41.7773C17.4073 42.3038 16.4562 42.7412 15.5006 43.2042C14.545 43.6672 13.5846 44.1409 13.1056 44.5291C12.866 44.7232 12.7794 44.8977 12.7828 44.8858C12.7863 44.8739 12.7193 44.7374 12.8338 44.8519C13.1337 45.1601 14.0699 45.6879 15.2628 46.1598C16.4557 46.6317 17.9157 47.1087 19.3905 47.5867C20.8652 48.0646 22.357 48.5379 23.6201 49.0305C24.8832 49.5231 25.9126 49.9811 26.5927 50.6612C26.9311 51.009 27.1703 51.4417 27.2212 51.8842C27.272 52.3267 27.1522 52.7419 26.9833 53.0902C26.6456 53.7868 26.1026 54.3226 25.6075 54.8398C25.1123 55.357 24.6637 55.851 24.5034 56.1817C24.4232 56.3471 24.4108 56.4548 24.4184 56.5214C24.4261 56.5881 24.4375 56.6553 24.5883 56.8102C24.594 56.8158 24.5997 56.8214 24.6053 56.8272C25.2541 57.5131 26.6637 57.6095 28.2573 57.9823C29.0541 58.1686 29.8874 58.4508 30.6014 59.0694C31.3154 59.688 31.8513 60.6297 32.0792 61.9061C32.1752 62.4467 32.4612 62.7099 33.1494 62.9253C33.8375 63.1406 34.8857 63.1783 36.037 63.0102C38.3397 62.674 41.0704 61.5451 42.6447 60.2414C42.7425 60.1583 42.7153 60.1803 42.7466 60.1395C42.6407 60.0638 42.3924 59.9022 41.9822 59.6979C41.4976 59.4564 40.9252 59.2307 40.4874 58.6787C40.2686 58.4027 40.1179 57.967 40.1817 57.5406C40.2455 57.1142 40.4789 56.7595 40.7932 56.4365C43.3728 53.8282 45.9146 53.2055 47.8255 52.6995C48.781 52.4465 49.5808 52.2151 50.1866 51.8332C50.7924 51.4514 51.2656 50.9289 51.6644 49.9138C51.7084 49.8039 51.7071 49.772 51.6474 49.642C51.5878 49.512 51.4276 49.304 51.1718 49.0814C50.6603 48.6362 49.8073 48.1578 48.9636 47.6886C48.12 47.2193 47.3001 46.7818 46.7044 46.2278C46.4066 45.9507 46.0945 45.6018 46.0589 45.0727C46.0234 44.5436 46.3702 44.0662 46.7724 43.7817C48.2648 42.7309 50.5209 41.931 52.9724 41.0809C55.4238 40.2309 58.0607 39.3512 60.2085 38.3461C62.3563 37.341 63.9359 36.1835 64.4381 35.0168C64.6892 34.4335 64.7352 33.8435 64.4721 33.0804C64.2089 32.3173 63.6081 31.384 62.5356 30.3116L39.3494 6.58175C39.3435 6.57626 39.3382 6.57024 39.3324 6.56477C38.0508 5.36473 36.3546 4.76422 34.6781 4.76422ZM59.648 48.2491C58.2156 48.3008 56.8978 48.9565 56.3357 49.9817C56.4954 50.0418 56.6392 50.1094 56.8962 50.1686C57.6439 50.3406 58.6875 50.4516 59.7159 50.4743C60.7444 50.497 61.7728 50.4105 62.3998 50.2365C62.6742 50.1604 62.8196 50.0834 62.8924 50.0327C62.7533 49.4396 62.4223 49.0205 61.8562 48.7077C61.2699 48.3838 60.4665 48.2196 59.648 48.2491ZM21.3269 53.1751C20.1909 53.0961 18.7632 53.5483 18.0655 54.1094C17.7167 54.3899 17.5691 54.6499 17.556 54.8228C17.5428 54.9957 17.598 55.2261 18.0655 55.6212C18.0656 55.6268 18.0656 55.6325 18.0655 55.6381C18.8009 56.2741 19.6322 56.2078 20.5795 55.6891C21.3736 55.2542 22.0782 54.4385 22.5499 53.5828C22.2319 53.3777 21.8517 53.2116 21.3269 53.1751V53.1751ZM54.4841 53.5149C54.241 53.8239 54.1086 54.1117 54.0935 54.3132C54.0726 54.5914 54.1514 54.8064 54.3652 55.0097C54.766 55.3907 55.6367 55.5547 56.5225 55.0776C56.505 54.9748 56.4718 54.8189 56.3357 54.619C56.0639 54.2199 55.4287 53.79 54.4841 53.5149Z" stroke="url(#paint16_radial_18_18)" stroke-width="0.485348"/>
</g>
<g opacity="0.325123" filter="url(#filter11_f_18_18)">
<path fill-rule="evenodd" clip-rule="evenodd" d="M22.4027 40.675C21.0515 41.0736 16.6716 42.7286 17.2932 43.9928C17.8888 45.2039 28.0725 45.6919 29.6355 49.3013C30.3171 50.8753 28.0715 52.0626 28.6401 53.6808C29.078 54.9269 32.4654 58.0579 34.6085 59.5381C36.2894 60.6992 38.4972 58.6032 37.5982 56.8659C36.166 54.0981 42.4934 50.7083 45.3619 49.1686C47.0355 48.2703 41.9114 43.8601 41.9114 43.8601L22.4027 40.675Z" fill="url(#paint17_linear_18_18)"/>
</g>
<path fill-rule="evenodd" clip-rule="evenodd" d="M22.9024 41.8972C24.1156 42.7883 26.5099 42.2508 27.9478 42.8983C31.3992 44.4525 35.6419 46.1844 34.8611 43.1182L33.9828 43.8477L33.9657 42.4575L31.9263 42.9556C31.9263 42.9556 30.3466 41.6876 29.6224 41.2695C29.4711 41.1821 28.6941 41.9722 28.6941 41.9722L28.5545 41.1331C27.5449 41.0256 26.5454 40.9782 25.6654 40.9853C23.5558 41.0022 22.1327 41.332 22.9024 41.8972H22.9024Z" fill="url(#paint18_linear_18_18)"/>
<g opacity="0.477832" filter="url(#filter12_f_18_18)">
<path fill-rule="evenodd" clip-rule="evenodd" d="M45.561 44.7227C45.0939 46.4422 51.3016 48.7784 50.8363 49.9649C49.8121 52.5771 44.2071 50.7977 39.9207 56.2687C39.3068 57.0524 40.7834 59.8519 40.5843 59.5202C40.3852 59.1884 38.8684 56.8758 39.2572 55.7379C40.4766 52.1692 52.2664 50.8388 50.1064 49.1354C48.8643 48.1559 44.3983 45.4494 45.561 44.7227Z" fill="url(#paint19_radial_18_18)"/>
</g>
<path opacity="0.586207" d="M59.5289 48.2562C59.5289 48.331 59.4573 48.4027 59.3297 48.4556C59.2022 48.5085 59.0292 48.5382 58.8488 48.5382C58.6684 48.5382 58.4954 48.5085 58.3679 48.4556C58.2403 48.4027 58.1686 48.331 58.1686 48.2562C58.1686 48.1814 58.2403 48.1097 58.3679 48.0568C58.4954 48.0039 58.6684 47.9742 58.8488 47.9742C59.0292 47.9742 59.2022 48.0039 59.3297 48.0568C59.4573 48.1097 59.5289 48.1814 59.5289 48.2562Z" fill="white"/>
<path opacity="0.586207" d="M54.9835 53.4652C54.9835 53.5399 54.9381 53.6117 54.8572 53.6646C54.7763 53.7175 54.6666 53.7472 54.5522 53.7472C54.4378 53.7472 54.3281 53.7175 54.2472 53.6646C54.1664 53.6117 54.1209 53.5399 54.1209 53.4652C54.1209 53.3904 54.1664 53.3186 54.2472 53.2657C54.3281 53.2128 54.4378 53.1831 54.5522 53.1831C54.6666 53.1831 54.7763 53.2128 54.8572 53.2657C54.9381 53.3186 54.9835 53.3904 54.9835 53.4652Z" fill="white"/>
<path opacity="0.586207" d="M20.5779 53.2163C20.5779 53.2911 20.4975 53.3629 20.3544 53.4158C20.2113 53.4686 20.0172 53.4984 19.8148 53.4984C19.6124 53.4984 19.4183 53.4686 19.2752 53.4158C19.1321 53.3629 19.0517 53.2911 19.0517 53.2163C19.0517 53.1415 19.1321 53.0698 19.2752 53.0169C19.4183 52.964 19.6124 52.9343 19.8148 52.9343C20.0172 52.9343 20.2113 52.964 20.3544 53.0169C20.4975 53.0698 20.5779 53.1415 20.5779 53.2163Z" fill="white"/>
<path opacity="0.251232" d="M20.1466 40.8077C16.2585 43.2125 10.2136 44.0877 16.8288 45.6849C16.0408 43.9302 18.5348 44.1238 20.1466 40.8077Z" fill="url(#paint20_linear_18_18)"/>
<g opacity="0.363158" filter="url(#filter13_f_18_18)">
<path d="M33.9487 62.7053C33.9487 62.7053 39.9451 62.1405 41.3323 60.4103C42.1438 59.3981 38.107 58.2169 38.9784 57.2252C42.2564 53.4949 45.0117 53.6507 48.8124 52.0883C52.6132 50.5259 51.2107 49.7608 49.9813 49.0748C47.8758 47.8999 43.1898 46.6482 44.74 43.8601C46.2999 41.0546 59.9603 37.1582 59.9603 37.1582C64.0999 35.7439 63.5804 33.1862 61.5528 31.0534L49.3433 18.9102C49.3433 18.9102 49.9492 30.4266 47.4853 35.3665C44.4405 41.4711 28.2303 48.2826 35.0104 49.0359C37.3992 49.3013 38.546 50.1163 39.5226 51.9556C41.5335 55.7429 33.9487 62.7053 33.9487 62.7053Z" fill="url(#paint21_linear_18_18)"/>
</g>
</g>
<defs>
<filter id="filter0_f_18_18" x="2.95218" y="2.89554" width="64.0957" height="63.1472" filterUnits="userSpaceOnUse" color-interpolation-filters="sRGB">
<feFlood flood-opacity="0" result="BackgroundImageFix"/>
<feBlend mode="normal" in="SourceGraphic" in2="BackgroundImageFix" result="shape"/>
<feGaussianBlur stdDeviation="0.800584" result="effect1_foregroundBlur_18_18"/>
</filter>
<filter id="filter1_f_18_18" x="-2.38505" y="-1.91087" width="74.7702" height="73.8216" filterUnits="userSpaceOnUse" color-interpolation-filters="sRGB">
<feFlood flood-opacity="0" result="BackgroundImageFix"/>
<feBlend mode="normal" in="SourceGraphic" in2="BackgroundImageFix" result="shape"/>
<feGaussianBlur stdDeviation="3.4692" result="effect1_foregroundBlur_18_18"/>
</filter>
<filter id="filter2_f_18_18" x="22.6173" y="48.1992" width="21.4491" height="15.9668" filterUnits="userSpaceOnUse" color-interpolation-filters="sRGB">
<feFlood flood-opacity="0" result="BackgroundImageFix"/>
<feBlend mode="normal" in="SourceGraphic" in2="BackgroundImageFix" result="shape"/>
<feGaussianBlur stdDeviation="1.03072" result="effect1_foregroundBlur_18_18"/>
</filter>
<filter id="filter3_f_18_18" x="42.2793" y="33.2743" width="24.1842" height="12.8123" filterUnits="userSpaceOnUse" color-interpolation-filters="sRGB">
<feFlood flood-opacity="0" result="BackgroundImageFix"/>
<feBlend mode="normal" in="SourceGraphic" in2="BackgroundImageFix" result="shape"/>
<feGaussianBlur stdDeviation="1.11582" result="effect1_foregroundBlur_18_18"/>
</filter>
<filter id="filter4_f_18_18" x="55.5893" y="46.7642" width="8.18047" height="5.04958" filterUnits="userSpaceOnUse" color-interpolation-filters="sRGB">
<feFlood flood-opacity="0" result="BackgroundImageFix"/>
<feBlend mode="normal" in="SourceGraphic" in2="BackgroundImageFix" result="shape"/>
<feGaussianBlur stdDeviation="0.506666" result="effect1_foregroundBlur_18_18"/>
</filter>
<filter id="filter5_f_18_18" x="54.6231" y="48.9772" width="9.84293" height="2.9268" filterUnits="userSpaceOnUse" color-interpolation-filters="sRGB">
<feFlood flood-opacity="0" result="BackgroundImageFix"/>
<feBlend mode="normal" in="SourceGraphic" in2="BackgroundImageFix" result="shape"/>
<feGaussianBlur stdDeviation="0.431956" result="effect1_foregroundBlur_18_18"/>
</filter>
<filter id="filter6_f_18_18" x="53.0019" y="52.2399" width="3.76037" height="3.93173" filterUnits="userSpaceOnUse" color-interpolation-filters="sRGB">
<feFlood flood-opacity="0" result="BackgroundImageFix"/>
<feBlend mode="normal" in="SourceGraphic" in2="BackgroundImageFix" result="shape"/>
<feGaussianBlur stdDeviation="0.333159" result="effect1_foregroundBlur_18_18"/>
</filter>
<filter id="filter7_f_18_18" x="53.437" y="53.723" width="4.324" height="2.7893" filterUnits="userSpaceOnUse" color-interpolation-filters="sRGB">
<feFlood flood-opacity="0" result="BackgroundImageFix"/>
<feBlend mode="normal" in="SourceGraphic" in2="BackgroundImageFix" result="shape"/>
<feGaussianBlur stdDeviation="0.284033" result="effect1_foregroundBlur_18_18"/>
</filter>
<filter id="filter8_f_18_18" x="16.5209" y="51.8788" width="7.10262" height="4.06319" filterUnits="userSpaceOnUse" color-interpolation-filters="sRGB">
<feFlood flood-opacity="0" result="BackgroundImageFix"/>
<feBlend mode="normal" in="SourceGraphic" in2="BackgroundImageFix" result="shape"/>
<feGaussianBlur stdDeviation="0.41184" result="effect1_foregroundBlur_18_18"/>
</filter>
<filter id="filter9_f_18_18" x="16.3711" y="52.9617" width="7.42729" height="4.17286" filterUnits="userSpaceOnUse" color-interpolation-filters="sRGB">
<feFlood flood-opacity="0" result="BackgroundImageFix"/>
<feBlend mode="normal" in="SourceGraphic" in2="BackgroundImageFix" result="shape"/>
<feGaussianBlur stdDeviation="0.349863" result="effect1_foregroundBlur_18_18"/>
</filter>
<filter id="filter10_f_18_18" x="4.46728" y="3.87328" width="61.0728" height="60.1329" filterUnits="userSpaceOnUse" color-interpolation-filters="sRGB">
<feFlood flood-opacity="0" result="BackgroundImageFix"/>
<feBlend mode="normal" in="SourceGraphic" in2="BackgroundImageFix" result="shape"/>
<feGaussianBlur stdDeviation="0.324131" result="effect1_foregroundBlur_18_18"/>
</filter>
<filter id="filter11_f_18_18" x="13.6544" y="37.0962" width="35.6222" height="26.3554" filterUnits="userSpaceOnUse" color-interpolation-filters="sRGB">
<feFlood flood-opacity="0" result="BackgroundImageFix"/>
<feBlend mode="normal" in="SourceGraphic" in2="BackgroundImageFix" result="shape"/>
<feGaussianBlur stdDeviation="1.7894" result="effect1_foregroundBlur_18_18"/>
</filter>
<filter id="filter12_f_18_18" x="37.9892" y="43.5182" width="14.0767" height="17.2338" filterUnits="userSpaceOnUse" color-interpolation-filters="sRGB">
<feFlood flood-opacity="0" result="BackgroundImageFix"/>
<feBlend mode="normal" in="SourceGraphic" in2="BackgroundImageFix" result="shape"/>
<feGaussianBlur stdDeviation="0.602285" result="effect1_foregroundBlur_18_18"/>
</filter>
<filter id="filter13_f_18_18" x="30.6797" y="16.2217" width="35.0959" height="49.1721" filterUnits="userSpaceOnUse" color-interpolation-filters="sRGB">
<feFlood flood-opacity="0" result="BackgroundImageFix"/>
<feBlend mode="normal" in="SourceGraphic" in2="BackgroundImageFix" result="shape"/>
<feGaussianBlur stdDeviation="1.34425" result="effect1_foregroundBlur_18_18"/>
</filter>
<linearGradient id="paint0_linear_18_18" x1="18.1037" y1="18.2008" x2="31.8176" y2="31.9146" gradientUnits="userSpaceOnUse">
<stop stop-color="white"/>
<stop offset="1" stop-color="white" stop-opacity="0"/>
</linearGradient>
<linearGradient id="paint1_linear_18_18" x1="32.8266" y1="10.0809" x2="49.1335" y2="26.3878" gradientUnits="userSpaceOnUse">
<stop stop-color="white"/>
<stop offset="1" stop-color="white" stop-opacity="0"/>
</linearGradient>
<radialGradient id="paint2_radial_18_18" cx="0" cy="0" r="1" gradientUnits="userSpaceOnUse" gradientTransform="translate(24.6787 61.2236) scale(13.8314 9.25818)">
<stop stop-color="white"/>
<stop offset="1" stop-color="white" stop-opacity="0"/>
</radialGradient>
<radialGradient id="paint3_radial_18_18" cx="0" cy="0" r="1" gradientUnits="userSpaceOnUse" gradientTransform="translate(31.9715 61.5554) scale(17.6477 11.8127)">
<stop stop-color="white"/>
<stop offset="1" stop-color="white" stop-opacity="0"/>
</radialGradient>
<radialGradient id="paint4_radial_18_18" cx="0" cy="0" r="1" gradientUnits="userSpaceOnUse" gradientTransform="translate(54.3714 40.1843) scale(9.86045 4.1745)">
<stop stop-color="white"/>
<stop offset="1" stop-color="white" stop-opacity="0"/>
</radialGradient>
<radialGradient id="paint5_radial_18_18" cx="0" cy="0" r="1" gradientUnits="userSpaceOnUse" gradientTransform="translate(56.4586 41.3358) scale(9.86045 4.1745)">
<stop stop-color="white"/>
<stop offset="1" stop-color="white" stop-opacity="0"/>
</radialGradient>
<linearGradient id="paint6_linear_18_18" x1="60.1653" y1="47.3636" x2="60.2013" y2="49.181" gradientUnits="userSpaceOnUse">
<stop stop-color="white"/>
<stop offset="1" stop-color="white" stop-opacity="0"/>
</linearGradient>
<linearGradient id="paint7_linear_18_18" x1="60.2373" y1="47.1551" x2="60.2373" y2="49.9145" gradientUnits="userSpaceOnUse">
<stop stop-color="white"/>
<stop offset="1" stop-color="white" stop-opacity="0"/>
</linearGradient>
<radialGradient id="paint8_radial_18_18" cx="0" cy="0" r="1" gradientUnits="userSpaceOnUse" gradientTransform="translate(59.5445 50.4406) scale(4.05754 0.599484)">
<stop stop-color="white"/>
<stop offset="1" stop-color="white" stop-opacity="0"/>
</radialGradient>
<linearGradient id="paint9_linear_18_18" x1="54.4687" y1="52.7534" x2="55.3632" y2="54.334" gradientUnits="userSpaceOnUse">
<stop stop-color="white"/>
<stop offset="1" stop-color="white" stop-opacity="0"/>
</linearGradient>
<linearGradient id="paint10_linear_18_18" x1="54.1322" y1="52.1935" x2="55.3801" y2="54.6546" gradientUnits="userSpaceOnUse">
<stop stop-color="white"/>
<stop offset="1" stop-color="white" stop-opacity="0"/>
</linearGradient>
<radialGradient id="paint11_radial_18_18" cx="0" cy="0" r="1" gradientUnits="userSpaceOnUse" gradientTransform="translate(55.6207 55.6191) rotate(-26.8861) scale(1.75437 0.599482)">
<stop stop-color="white"/>
<stop offset="1" stop-color="white" stop-opacity="0"/>
</radialGradient>
<radialGradient id="paint12_radial_18_18" cx="0" cy="0" r="1" gradientUnits="userSpaceOnUse" gradientTransform="translate(19.7159 47.0185) scale(6.54964 2.66626)">
<stop stop-color="white" stop-opacity="0.330049"/>
<stop offset="1" stop-color="white" stop-opacity="0"/>
</radialGradient>
<linearGradient id="paint13_linear_18_18" x1="20.0491" y1="52.4768" x2="20.3549" y2="53.7702" gradientUnits="userSpaceOnUse">
<stop stop-color="white"/>
<stop offset="1" stop-color="white" stop-opacity="0"/>
</linearGradient>
<linearGradient id="paint14_linear_18_18" x1="20.0636" y1="52.3178" x2="20.4955" y2="54.285" gradientUnits="userSpaceOnUse">
<stop stop-color="white"/>
<stop offset="1" stop-color="white" stop-opacity="0"/>
</linearGradient>
<radialGradient id="paint15_radial_18_18" cx="0" cy="0" r="1" gradientUnits="userSpaceOnUse" gradientTransform="translate(19.8868 56.3256) rotate(-15.4869) scale(3.70628 1.38671)">
<stop stop-color="white"/>
<stop offset="1" stop-color="white" stop-opacity="0"/>
</radialGradient>
<radialGradient id="paint16_radial_18_18" cx="0" cy="0" r="1" gradientUnits="userSpaceOnUse" gradientTransform="translate(37.3925 11.1132) scale(51.2825 50.4732)">
<stop stop-color="white"/>
<stop offset="1" stop-color="white" stop-opacity="0"/>
</radialGradient>
<linearGradient id="paint17_linear_18_18" x1="22.4027" y1="50.2739" x2="37.7973" y2="54.3444" gradientUnits="userSpaceOnUse">
<stop stop-color="white"/>
<stop offset="1" stop-color="white" stop-opacity="0"/>
</linearGradient>
<linearGradient id="paint18_linear_18_18" x1="30.5634" y1="40.9155" x2="28.8342" y2="44.8777" gradientUnits="userSpaceOnUse">
<stop stop-color="#EEEEEC"/>
<stop offset="1" stop-color="#EEEEEC" stop-opacity="0"/>
</linearGradient>
<radialGradient id="paint19_radial_18_18" cx="0" cy="0" r="1" gradientUnits="userSpaceOnUse" gradientTransform="translate(45.1569 51.9692) scale(8.05931 10.2421)">
<stop stop-color="white"/>
<stop offset="1" stop-color="white" stop-opacity="0"/>
</radialGradient>
<linearGradient id="paint20_linear_18_18" x1="16.6961" y1="42.2676" x2="19.1181" y2="44.1919" gradientUnits="userSpaceOnUse">
<stop stop-color="white"/>
<stop offset="1" stop-color="white" stop-opacity="0"/>
</linearGradient>
<linearGradient id="paint21_linear_18_18" x1="45.0468" y1="52.7519" x2="37.8505" y2="33.3759" gradientUnits="userSpaceOnUse">
<stop stop-color="#729FCF"/>
<stop offset="1" stop-color="#729FCF" stop-opacity="0"/>
</linearGradient>
<clipPath id="clip0_18_18">
<rect width="70" height="70" fill="white"/>
</clipPath>
</defs>
</svg>
