<svg width="100" height="100" viewBox="0 0 100 100" fill="none" xmlns="http://www.w3.org/2000/svg">
<path d="M79.6167 51.5667C79.1278 51.0083 78.6125 50.4486 78.0708 49.8875C78.4486 49.4875 78.8153 49.0889 79.1708 48.6916C85.8583 41.175 88.6833 33.6333 86.0667 29.1041C83.5583 24.7583 76.0958 23.4625 66.75 25.2791C65.8306 25.4597 64.9153 25.6625 64.0042 25.8875C63.8292 25.2875 63.6445 24.6903 63.45 24.0958C60.2792 14.5416 55.1583 8.32915 49.925 8.33332C44.9083 8.33332 40.0583 14.1541 36.9625 23.1583C36.657 24.0472 36.375 24.9416 36.1167 25.8416C35.5083 25.6916 34.8972 25.5528 34.2833 25.425C24.425 23.4041 16.4875 24.7375 13.875 29.275C11.3708 33.6208 13.9875 40.7333 20.2417 47.9083C20.8639 48.6166 21.5028 49.3111 22.1583 49.9916C21.3833 50.7833 20.6542 51.5792 19.9708 52.3708C13.8667 59.4458 11.4 66.4375 13.9 70.7666C16.4833 75.2416 24.3083 76.7041 33.8375 74.8291C34.6097 74.6764 35.3778 74.5041 36.1417 74.3125C36.4195 75.2875 36.7264 76.2555 37.0625 77.2166C40.1458 86.0375 44.9667 91.6666 49.9667 91.6666C55.1333 91.6666 60.3083 85.6125 63.4458 76.4208C63.6958 75.6958 63.925 74.9416 64.15 74.1666C65.1361 74.4111 66.1292 74.6278 67.1292 74.8166C76.3083 76.5541 83.5958 75.1917 86.0917 70.8583C88.6708 66.3792 86.0083 58.8708 79.6167 51.5667ZM16.9583 31.05C18.5667 28.2583 25.0542 27.1666 33.5667 28.9166C34.1111 29.0278 34.6653 29.1528 35.2292 29.2916C34.3971 32.9681 33.8097 36.6958 33.4708 40.45C30.4011 42.6086 27.4741 44.9635 24.7083 47.5C24.1 46.8694 23.507 46.2236 22.9292 45.5625C17.5667 39.4208 15.45 33.6708 16.9583 31.05ZM33.1542 54.9166C31.0292 53.3041 29.05 51.6541 27.2542 49.9958C29.0458 48.3458 31.025 46.7041 33.15 45.0958C33.0722 46.7319 33.0347 48.3694 33.0375 50.0083C33.0375 51.6472 33.0764 53.2833 33.1542 54.9166ZM33.1542 71.3333C29.5426 72.1376 25.8138 72.2704 22.1542 71.725C21.1509 71.6465 20.1744 71.3631 19.285 70.8923C18.3956 70.4214 17.6122 69.7731 16.9833 68.9875C15.4625 66.3625 17.4458 60.7458 22.6667 54.6958C23.3222 53.9375 24 53.1986 24.7 52.4791C27.467 55.0312 30.3998 57.3975 33.4792 59.5625C33.8214 63.3641 34.4143 67.139 35.2542 70.8625C34.5597 71.0375 33.8583 71.1958 33.15 71.3375L33.1542 71.3333ZM62.7375 37.8375C61.3403 36.9569 59.9264 36.1055 58.4958 35.2833C57.0847 34.4722 55.6583 33.6903 54.2167 32.9375C56.5868 31.9364 59.005 31.0534 61.4625 30.2916C62.0141 32.7839 62.4397 35.3024 62.7375 37.8375ZM40.3333 24.3125C42.9833 16.6041 46.9083 11.8958 49.9333 11.8958C53.1542 11.8916 57.3375 16.9708 60.075 25.2166C60.2528 25.7555 60.4195 26.2972 60.575 26.8416C56.9814 27.9554 53.4654 29.3055 50.05 30.8833C46.6459 29.2862 43.138 27.9206 39.55 26.7958C39.7917 25.9625 40.0528 25.1347 40.3333 24.3125ZM38.6667 30.2458C41.1129 31.0157 43.5187 31.9085 45.875 32.9208C42.9528 34.4264 40.1083 36.0666 37.3417 37.8416C37.675 35.1833 38.1208 32.6375 38.6667 30.2458ZM37.3458 62.1625C38.7264 63.0486 40.1278 63.9 41.55 64.7166C43 65.55 44.4681 66.35 45.9542 67.1166C43.581 68.164 41.1555 69.0888 38.6875 69.8875C38.1141 67.3374 37.6663 64.7607 37.3458 62.1666V62.1625ZM60.0792 75.2708C58.9706 78.8001 57.2221 82.0953 54.9208 84.9916C54.3527 85.822 53.6202 86.5269 52.7688 87.063C51.9174 87.599 50.9652 87.9548 49.9708 88.1083C46.9333 88.1083 43.0625 83.5875 40.4292 76.0416C40.1181 75.15 39.832 74.25 39.5708 73.3416C43.1758 72.1788 46.6978 70.7728 50.1125 69.1333C53.5569 70.7239 57.102 72.0865 60.725 73.2125C60.525 73.9041 60.3097 74.5903 60.0792 75.2708ZM61.5875 69.7541C59.098 68.9767 56.6479 68.0784 54.2458 67.0625C55.6597 66.3208 57.0833 65.5361 58.5167 64.7083C59.9889 63.8583 61.4222 62.9875 62.8167 62.0958C62.5382 64.6679 62.1279 67.2241 61.5875 69.7541ZM63.45 49.9916C63.45 52.5222 63.3708 55.05 63.2125 57.575C61.1583 58.9666 58.9917 60.325 56.7375 61.625C54.4875 62.9208 52.2667 64.1125 50.0833 65.1916C47.7861 64.0916 45.5333 62.9055 43.325 61.6333C41.1306 60.3694 38.9861 59.0236 36.8917 57.5958C36.6972 55.068 36.6 52.5375 36.6 50.0042C36.6 47.4736 36.6945 44.9444 36.8833 42.4166C41.0719 39.557 45.4705 37.0178 50.0417 34.8208C52.3083 35.9236 54.5347 37.1055 56.7208 38.3666C58.9153 39.6278 61.0681 40.9597 63.1792 42.3625C63.3597 44.9014 63.45 47.4444 63.45 49.9916ZM67.4333 28.7708C75.4417 27.2166 81.475 28.2625 82.9875 30.8833C84.6 33.675 82.2917 39.8333 76.5125 46.325C76.1931 46.6833 75.8625 47.043 75.5208 47.4041C72.7062 44.8597 69.7215 42.5098 66.5875 40.3708C66.2719 36.6581 65.7081 32.9707 64.9 29.3333C65.7611 29.1222 66.6056 28.9347 67.4333 28.7708ZM66.8917 44.9583C69.0065 46.5018 71.0398 48.1541 72.9833 49.9083C71.0488 51.6907 69.0224 53.3708 66.9125 54.9416C66.9764 53.2916 67.0083 51.6416 67.0083 49.9916C67.0083 48.3139 66.9695 46.6361 66.8917 44.9583ZM83.0125 69.0792C81.4958 71.7083 75.6458 72.8042 67.7917 71.3208C66.8917 71.1514 65.9695 70.9486 65.025 70.7125C65.8137 67.0281 66.3524 63.2946 66.6375 59.5375C69.7659 57.3625 72.741 54.9749 75.5417 52.3917C76.0333 52.9 76.5 53.4055 76.9417 53.9083C79.4461 56.6315 81.4277 59.7926 82.7875 63.2333C83.2227 64.1406 83.4672 65.1274 83.5059 66.1329C83.5446 67.1384 83.3767 68.1411 83.0125 69.0792ZM46.2667 43.4916C44.9922 44.2276 43.9645 45.3249 43.3136 46.6449C42.6627 47.9649 42.4178 49.4482 42.6099 50.9074C42.802 52.3665 43.4224 53.7359 44.3927 54.8425C45.3631 55.949 46.6397 56.743 48.0613 57.1241C49.4828 57.5051 50.9855 57.456 52.3791 56.9831C53.7728 56.5102 54.995 55.6346 55.8911 54.4672C56.7872 53.2997 57.317 51.8927 57.4135 50.4241C57.51 48.9556 57.1689 47.4914 56.4333 46.2166C55.9448 45.3701 55.2943 44.628 54.5189 44.0329C53.7436 43.4378 52.8586 43.0012 51.9145 42.7482C50.9704 42.4951 49.9857 42.4305 49.0166 42.5581C48.0476 42.6857 47.1131 43.0029 46.2667 43.4916Z" fill="white"/>
</svg>
