<svg width="100" height="100" viewBox="0 0 100 100" fill="none" xmlns="http://www.w3.org/2000/svg">
<path d="M50 66.6667C56.9036 66.6667 62.5 61.0702 62.5 54.1667C62.5 47.2631 56.9036 41.6667 50 41.6667C43.0964 41.6667 37.5 47.2631 37.5 54.1667C37.5 61.0702 43.0964 66.6667 50 66.6667Z" stroke="white" stroke-width="8.33333" stroke-linecap="round" stroke-linejoin="round"/>
<path d="M75 12.5V37.5M20.8333 29.1667H29.1667C31.3768 29.1667 33.4964 28.2887 35.0592 26.7259C36.622 25.1631 37.5 23.0435 37.5 20.8333C37.5 19.7283 37.939 18.6685 38.7204 17.8871C39.5018 17.1057 40.5616 16.6667 41.6667 16.6667H50L20.8333 29.1667ZM87.5 45.8333V75C87.5 77.2101 86.622 79.3297 85.0592 80.8926C83.4964 82.4554 81.3768 83.3333 79.1667 83.3333H20.8333C18.6232 83.3333 16.5036 82.4554 14.9408 80.8926C13.378 79.3297 12.5 77.2101 12.5 75V37.5C12.5 35.2899 13.378 33.1702 14.9408 31.6074C16.5036 30.0446 18.6232 29.1667 20.8333 29.1667L87.5 45.8333ZM62.5 25H87.5H62.5Z" stroke="white" stroke-width="8.33333" stroke-linecap="round" stroke-linejoin="round"/>
</svg>
