<svg width="76" height="84" viewBox="0 0 76 84" fill="none" xmlns="http://www.w3.org/2000/svg">
<path d="M67.6167 43.5666C67.1278 43.0083 66.6125 42.4485 66.0708 41.8874C66.4486 41.4874 66.8153 41.0888 67.1708 40.6916C73.8583 33.1749 76.6833 25.6333 74.0667 21.1041C71.5583 16.7583 64.0958 15.4624 54.75 17.2791C53.8306 17.4596 52.9153 17.6624 52.0042 17.8874C51.8292 17.2874 51.6445 16.6902 51.45 16.0958C48.2792 6.54159 43.1583 0.329087 37.925 0.333254C32.9083 0.333254 28.0583 6.15409 24.9625 15.1583C24.657 16.0471 24.375 16.9416 24.1167 17.8416C23.5083 17.6916 22.8972 17.5527 22.2833 17.4249C12.425 15.4041 4.48751 16.7374 1.87501 21.2749C-0.629156 25.6208 1.98751 32.7333 8.24168 39.9083C8.8639 40.6166 9.50279 41.311 10.1583 41.9916C9.38334 42.7833 8.65418 43.5791 7.97085 44.3708C1.86668 51.4458 -0.599989 58.4374 1.90001 62.7666C4.48334 67.2416 12.3083 68.7041 21.8375 66.8291C22.6097 66.6763 23.3778 66.5041 24.1417 66.3124C24.4195 67.2874 24.7264 68.2555 25.0625 69.2166C28.1458 78.0374 32.9667 83.6666 37.9667 83.6666C43.1333 83.6666 48.3083 77.6124 51.4458 68.4207C51.6958 67.6957 51.925 66.9416 52.15 66.1666C53.1361 66.411 54.1292 66.6277 55.1292 66.8166C64.3083 68.5541 71.5958 67.1916 74.0917 62.8583C76.6708 58.3791 74.0083 50.8708 67.6167 43.5666ZM4.95834 23.0499C6.56668 20.2583 13.0542 19.1666 21.5667 20.9166C22.1111 21.0277 22.6653 21.1527 23.2292 21.2916C22.3971 24.9681 21.8097 28.6957 21.4708 32.4499C18.4011 34.6085 15.4741 36.9635 12.7083 39.4999C12.1 38.8694 11.507 38.2235 10.9292 37.5624C5.56668 31.4208 3.45001 25.6708 4.95834 23.0499ZM21.1542 46.9166C19.0292 45.3041 17.05 43.6541 15.2542 41.9958C17.0458 40.3458 19.025 38.7041 21.15 37.0958C21.0722 38.7319 21.0347 40.3694 21.0375 42.0083C21.0375 43.6471 21.0764 45.2833 21.1542 46.9166ZM21.1542 63.3333C17.5426 64.1376 13.8138 64.2704 10.1542 63.7249C9.1509 63.6465 8.17438 63.363 7.28499 62.8922C6.39559 62.4213 5.61224 61.773 4.98335 60.9874C3.46251 58.3624 5.44584 52.7458 10.6667 46.6958C11.3222 45.9374 12 45.1985 12.7 44.4791C15.467 47.0312 18.3998 49.3974 21.4792 51.5624C21.8214 55.3641 22.4143 59.1389 23.2542 62.8624C22.5597 63.0374 21.8583 63.1958 21.15 63.3374L21.1542 63.3333ZM50.7375 29.8374C49.3403 28.9569 47.9264 28.1055 46.4958 27.2833C45.0847 26.4721 43.6583 25.6902 42.2167 24.9374C44.5868 23.9364 47.005 23.0534 49.4625 22.2916C50.0141 24.7838 50.4397 27.3023 50.7375 29.8374ZM28.3333 16.3124C30.9833 8.60409 34.9083 3.89575 37.9333 3.89575C41.1542 3.89159 45.3375 8.97075 48.075 17.2166C48.2528 17.7555 48.4195 18.2971 48.575 18.8416C44.9814 19.9553 41.4654 21.3055 38.05 22.8833C34.6459 21.2861 31.138 19.9205 27.55 18.7958C27.7917 17.9624 28.0528 17.1346 28.3333 16.3124ZM26.6667 22.2458C29.1129 23.0157 31.5187 23.9085 33.875 24.9208C30.9528 26.4263 28.1083 28.0666 25.3417 29.8416C25.675 27.1833 26.1208 24.6374 26.6667 22.2458ZM25.3458 54.1624C26.7264 55.0485 28.1278 55.8999 29.55 56.7166C31 57.5499 32.4681 58.3499 33.9542 59.1166C31.581 60.1639 29.1555 61.0887 26.6875 61.8874C26.1141 59.3373 25.6663 56.7606 25.3458 54.1666V54.1624ZM48.0792 67.2708C46.9706 70.8 45.2221 74.0952 42.9208 76.9916C42.3527 77.8219 41.6202 78.5269 40.7688 79.0629C39.9174 79.599 38.9652 79.9548 37.9708 80.1082C34.9333 80.1082 31.0625 75.5874 28.4292 68.0416C28.1181 67.1499 27.832 66.2499 27.5708 65.3416C31.1758 64.1787 34.6978 62.7727 38.1125 61.1333C41.5569 62.7238 45.102 64.0864 48.725 65.2124C48.525 65.9041 48.3097 66.5902 48.0792 67.2708ZM49.5875 61.7541C47.098 60.9767 44.6479 60.0784 42.2458 59.0624C43.6597 58.3208 45.0833 57.536 46.5167 56.7083C47.9889 55.8583 49.4222 54.9874 50.8167 54.0958C50.5382 56.6679 50.1279 59.224 49.5875 61.7541ZM51.45 41.9916C51.45 44.5221 51.3708 47.0499 51.2125 49.5749C49.1583 50.9666 46.9917 52.3249 44.7375 53.6249C42.4875 54.9208 40.2667 56.1124 38.0833 57.1916C35.7861 56.0916 33.5333 54.9055 31.325 53.6333C29.1306 52.3694 26.9861 51.0235 24.8917 49.5958C24.6972 47.068 24.6 44.5374 24.6 42.0041C24.6 39.4735 24.6945 36.9444 24.8833 34.4166C29.0719 31.5569 33.4705 29.0177 38.0417 26.8208C40.3083 27.9235 42.5347 29.1055 44.7208 30.3666C46.9153 31.6277 49.0681 32.9596 51.1792 34.3624C51.3597 36.9013 51.45 39.4444 51.45 41.9916ZM55.4333 20.7708C63.4417 19.2166 69.475 20.2624 70.9875 22.8833C72.6 25.6749 70.2917 31.8333 64.5125 38.3249C64.1931 38.6833 63.8625 39.043 63.5208 39.4041C60.7062 36.8596 57.7215 34.5097 54.5875 32.3708C54.2719 28.6581 53.7081 24.9706 52.9 21.3333C53.7611 21.1221 54.6056 20.9346 55.4333 20.7708ZM54.8917 36.9583C57.0065 38.5018 59.0398 40.154 60.9833 41.9083C59.0488 43.6906 57.0224 45.3707 54.9125 46.9416C54.9764 45.2916 55.0083 43.6416 55.0083 41.9916C55.0083 40.3138 54.9695 38.636 54.8917 36.9583ZM71.0125 61.0791C69.4958 63.7083 63.6458 64.8041 55.7917 63.3208C54.8917 63.1513 53.9695 62.9485 53.025 62.7124C53.8137 59.028 54.3524 55.2945 54.6375 51.5374C57.7659 49.3625 60.741 46.9749 63.5417 44.3916C64.0333 44.8999 64.5 45.4055 64.9417 45.9083C67.4461 48.6315 69.4277 51.7925 70.7875 55.2333C71.2227 56.1405 71.4672 57.1274 71.5059 58.1328C71.5446 59.1383 71.3767 60.1411 71.0125 61.0791ZM34.2667 35.4916C32.9922 36.2275 31.9645 37.3249 31.3136 38.6448C30.6627 39.9648 30.4178 41.4482 30.6099 42.9073C30.802 44.3665 31.4224 45.7359 32.3927 46.8424C33.3631 47.949 34.6397 48.743 36.0613 49.124C37.4828 49.505 38.9855 49.456 40.3791 48.9831C41.7728 48.5101 42.995 47.6346 43.8911 46.4671C44.7872 45.2996 45.317 43.8927 45.4135 42.4241C45.51 40.9555 45.1689 39.4913 44.4333 38.2166C43.9448 37.37 43.2943 36.628 42.5189 36.0328C41.7436 35.4377 40.8586 35.0011 39.9145 34.7481C38.9704 34.495 37.9857 34.4305 37.0166 34.558C36.0476 34.6856 35.1131 35.0028 34.2667 35.4916Z" fill="white"/>
</svg>
