<svg width="20" height="20" viewBox="0 0 20 20" fill="none" xmlns="http://www.w3.org/2000/svg">
<path d="M10.75 1.94C11.75 1.22 12.91 0.859998 14.22 0.859998C14.94 0.859998 15.73 1.05 16.59 1.45C17.45 1.84 18.13 2.3 18.63 2.83C19.66 4.11 20.09 5.6 19.94 7.3C19.78 9 19.22 10.33 18.25 11.27L10.66 18.86C10.47 19.05 10.23 19.14 9.94999 19.14C9.66999 19.14 9.43999 19.05 9.24999 18.86C9.15763 18.7689 9.08508 18.6597 9.0369 18.5392C8.98872 18.4188 8.96594 18.2897 8.96999 18.16C8.96999 17.88 9.05999 17.64 9.24999 17.45L13.84 12.86C14.09 12.64 14.09 12.41 13.84 12.16C13.59 11.91 13.36 11.91 13.14 12.16L8.54999 16.75C8.45743 16.8432 8.34655 16.9162 8.22434 16.9644C8.10213 17.0126 7.97126 17.035 7.83999 17.03C7.55999 17.03 7.32999 16.94 7.13999 16.75C7.04763 16.6589 6.97508 16.5497 6.9269 16.4292C6.87872 16.3088 6.85594 16.1797 6.85999 16.05C6.85999 15.77 6.94999 15.53 7.13999 15.34L11.73 10.75C12 10.5 12 10.25 11.73 10C11.5 9.75 11.28 9.75 11.03 10L6.43999 14.64C6.34639 14.7318 6.23532 14.8039 6.11336 14.852C5.99141 14.9001 5.86104 14.9232 5.72999 14.92C5.44999 14.92 5.20999 14.83 4.99999 14.64C4.79999 14.45 4.69999 14.22 4.69999 13.94C4.69999 13.66 4.80999 13.41 5.02999 13.19L9.62999 8.59C9.87999 8.34 9.87999 8.11 9.62999 7.89C9.37999 7.67 9.13999 7.67 8.91999 7.89L4.27999 12.5C4.05999 12.7 3.82999 12.81 3.57999 12.81C3.29999 12.81 3.05999 12.71 2.87999 12.5C2.68999 12.3 2.58999 12.06 2.58999 11.78C2.58999 11.5 2.68999 11.27 2.87999 11.08C5.93999 8 7.82999 6.14 8.54999 5.45L12.11 8.97C12.5 9.34 12.95 9.53 13.5 9.53C14.2 9.53 14.75 9.25 15.16 8.69C15.44 8.28 15.54 7.83 15.46 7.33C15.38 6.83 15.17 6.41 14.83 6.06L10.75 1.94ZM12.81 8.27L8.54999 4L1.46999 11.08C0.629987 10.23 0.149987 8.93 0.0399866 7.16C-0.0700134 5.4 0.409987 3.87 1.46999 2.59C2.65999 1.41 4.07999 0.809998 5.72999 0.809998C7.38999 0.809998 8.79999 1.41 9.94999 2.59L14.22 6.86C14.41 7.05 14.5 7.28 14.5 7.56C14.5 7.84 14.41 8.08 14.22 8.27C14.03 8.45 13.8 8.55 13.5 8.55C13.23 8.55 13 8.45 12.81 8.27Z" fill="white"/>
</svg>
